<?xml version="1.0" standalone="no"?>
<!DOCTYPE svg PUBLIC "-//W3C//DTD SVG 20010904//EN"
 "http://www.w3.org/TR/2001/REC-SVG-20010904/DTD/svg10.dtd">
<svg version="1.0" xmlns="http://www.w3.org/2000/svg"
 width="352.000000pt" height="352.000000pt" viewBox="0 0 352.000000 352.000000"
 preserveAspectRatio="xMidYMid meet">
<metadata>
Created by potrace 1.14, written by Peter Selinger 2001-2017
</metadata>
<g transform="translate(0.000000,352.000000) scale(0.100000,-0.100000)"
fill="#000000" stroke="none">
<path d="M0 1760 l0 -1760 1760 0 1760 0 0 1760 0 1760 -1760 0 -1760 0 0
-1760z m2369 1230 c144 0 261 -2 261 -6 0 -15 -106 -174 -116 -174 -5 0 -15 5
-22 12 -6 6 -15 8 -19 5 -4 -4 1 -15 10 -24 15 -15 15 -18 -1 -45 -10 -17 -28
-32 -44 -35 -26 -5 -33 -21 -14 -35 5 -3 -3 -26 -17 -51 -32 -54 -35 -80 -7
-47 24 28 25 19 5 -46 -8 -27 -15 -75 -15 -106 0 -63 16 -120 29 -100 4 7 15
10 24 6 12 -4 17 -1 17 10 0 25 17 19 24 -9 8 -32 1 -45 -27 -46 l-22 0 23 -9
c12 -5 22 -12 22 -14 0 -3 -6 -3 -14 0 -18 7 -30 -12 -15 -22 8 -5 9 -3 4 6
-6 9 -4 11 4 6 9 -6 9 -12 -3 -25 -9 -10 -13 -26 -9 -40 4 -15 2 -22 -3 -18
-15 9 -8 -54 8 -65 10 -8 9 -8 -4 -4 -12 3 -18 0 -18 -10 0 -8 4 -13 8 -10 4
2 9 -14 9 -36 2 -31 9 -47 36 -72 55 -51 75 -59 187 -65 l105 -6 3 -42 3 -43
-61 0 c-45 0 -62 -4 -67 -15 -8 -22 -4 -24 65 -31 l62 -7 0 -63 0 -64 -69 0
c-66 0 -69 1 -76 27 l-6 27 -22 -26 c-24 -28 -77 -43 -174 -49 -13 -1 -21 -5
-18 -9 6 -9 -47 -21 -91 -20 -17 0 -36 -6 -43 -14 -7 -8 -22 -12 -34 -9 -18 4
-20 3 -7 -7 12 -10 11 -11 -9 -7 -17 4 -25 1 -28 -14 -7 -24 -33 -25 -34 -1 0
16 -1 16 -8 -1 -4 -10 -10 -18 -14 -18 -4 1 -7 -1 -7 -4 0 -3 0 -10 0 -16 0
-6 9 -9 20 -6 11 3 18 1 14 -4 -3 -5 0 -17 5 -26 6 -10 11 -13 11 -8 0 6 5 3
10 -5 8 -12 10 -13 10 -1 0 10 8 7 25 -9 21 -19 25 -21 25 -7 0 9 5 17 10 17
6 0 10 -6 10 -14 0 -19 69 -36 165 -40 59 -3 113 -15 121 -27 3 -5 28 -9 56
-9 80 0 88 -13 88 -135 0 -65 -4 -105 -12 -113 -7 -7 -36 -12 -66 -12 -34 0
-70 -8 -100 -22 -26 -12 -53 -21 -61 -19 -8 1 -17 -2 -20 -8 -5 -7 -20 -6 -46
4 -50 17 -58 10 -83 -70 l-18 -60 -16 29 -16 30 -10 -51 c-12 -54 -8 -97 11
-122 15 -19 -10 -18 267 -19 l230 -2 -2 -112 -2 -113 -3 97 c-3 80 -7 99 -21
106 -9 5 -59 7 -110 4 l-93 -4 3 -106 3 -105 93 2 c59 1 92 -2 92 -8 0 -8
-134 -11 -430 -11 l-429 0 -31 45 c-17 25 -39 45 -48 45 -9 0 -30 -18 -45 -41
l-29 -40 -96 3 -96 3 -41 71 c-22 39 -47 79 -55 89 -8 9 -19 27 -25 38 -11 24
-41 35 -98 36 l-37 1 27 53 c32 62 33 80 10 129 -9 21 -14 38 -10 38 8 0 -38
23 -72 35 -42 15 -82 13 -123 -8 -66 -32 -73 -59 -79 -272 -4 -141 -8 -182
-20 -192 -15 -11 -211 -7 -225 6 -6 5 -11 540 -9 878 1 109 3 122 19 127 23 8
24 37 2 43 -14 4 -18 21 -23 91 -7 124 3 396 16 404 16 10 17 37 1 31 -12 -4
-14 18 -14 132 l0 136 30 -21 c26 -18 36 -43 31 -73 -1 -5 3 -6 7 -3 21 12 2
70 -33 100 l-35 32 0 246 c0 135 3 253 6 262 5 14 57 16 475 16 l469 0 0 -34
c0 -25 5 -35 20 -39 17 -4 21 1 26 34 l7 39 153 0 c107 0 154 3 154 11 0 8 4
8 14 0 11 -9 88 -12 275 -11z m399 -8 c9 -7 12 -39 10 -128 l-3 -119 -78 -3
c-81 -3 -86 -1 -156 55 -3 2 26 48 64 103 67 99 68 100 109 100 23 0 47 -4 54
-8z m-228 -237 c10 -12 8 -16 -15 -25 -34 -13 -40 -8 -23 19 15 25 21 26 38 6z
m180 -328 c0 -22 -20 -57 -47 -85 -8 -8 -13 -9 -13 -3 0 6 -7 11 -15 11 -20 0
-16 37 8 73 23 35 67 38 67 4z m-190 -6 c0 -5 3 -18 6 -28 5 -16 4 -16 -10 1
-18 23 -20 36 -6 36 6 0 10 -4 10 -9z m-22 -56 c-3 -3 -9 2 -12 12 -6 14 -5
15 5 6 7 -7 10 -15 7 -18z m567 -60 c-4 -37 -9 -64 -12 -62 -3 3 -2 35 2 72 4
36 10 64 12 61 3 -3 2 -35 -2 -71z m-375 -1620 l0 -55 -55 0 -55 0 0 55 0 55
55 0 55 0 0 -55z m-907 -95 c4 -16 0 -20 -19 -20 -22 0 -23 2 -12 20 7 11 16
20 19 20 4 0 9 -9 12 -20z"/>
<path d="M1070 2694 c-40 -48 -46 -104 -21 -171 9 -23 17 -30 28 -26 10 4 14
2 10 -4 -5 -7 1 -9 15 -5 12 3 19 1 15 -4 -3 -6 3 -11 14 -11 11 -1 17 1 15 5
-3 4 3 8 12 8 25 1 92 13 136 25 43 12 55 7 36 -16 -15 -18 0 -20 19 -2 11 10
12 9 7 -1 -6 -10 15 -13 101 -12 115 1 176 -4 208 -20 11 -5 31 -10 45 -12 14
-2 24 -6 23 -10 -2 -5 6 -17 18 -29 15 -15 18 -24 10 -32 -6 -6 -11 -16 -11
-22 0 -5 4 -4 9 3 6 10 10 9 14 -7 3 -12 1 -19 -4 -15 -10 6 -12 -17 -3 -40 3
-9 11 -13 16 -10 6 4 5 -3 -1 -15 -7 -11 -17 -21 -23 -21 -6 0 -8 -11 -6 -25
8 -37 -16 -53 -107 -70 -11 -2 -20 -4 -20 -5 0 -2 -63 -9 -112 -13 -17 -1 -35
-5 -39 -10 -12 -11 -26 -8 -18 5 5 7 3 8 -6 3 -16 -10 -60 -13 -60 -5 0 10
-88 11 -95 0 -3 -5 -12 -10 -18 -10 -7 0 -6 4 3 10 19 12 9 13 -22 1 -52 -19
-80 -22 -72 -9 6 9 3 9 -10 -1 -13 -11 -14 -16 -4 -22 8 -6 -2 -9 -27 -9 -30
0 -36 -3 -25 -10 12 -8 11 -10 -6 -10 -24 0 -41 -30 -23 -40 8 -5 8 -9 0 -14
-18 -12 10 -47 34 -41 11 3 14 2 7 -1 -23 -11 -2 -22 33 -18 19 2 35 1 35 -3
0 -5 24 -8 54 -8 30 0 52 3 49 8 -2 4 0 7 6 7 5 0 13 -5 17 -12 5 -8 10 -7 18
4 13 17 71 35 61 18 -6 -10 -3 -11 45 -14 14 0 31 -5 37 -9 7 -4 21 -3 31 2
11 6 22 8 25 5 3 -3 33 -6 66 -7 43 -2 61 2 61 11 0 19 20 14 21 -5 0 -11 3
-13 6 -6 3 10 8 9 20 -2 11 -12 18 -13 29 -5 7 7 32 13 56 15 57 5 58 6 23 16
-29 8 -29 8 6 6 27 -2 35 1 32 10 -3 9 0 11 10 7 8 -3 18 -1 22 5 3 6 12 11
18 11 7 0 6 -4 -3 -10 -13 -8 -12 -10 3 -10 9 0 17 5 17 11 0 6 6 17 14 24 10
11 16 11 26 2 10 -10 12 -8 6 7 -5 16 -4 17 9 6 13 -11 19 -9 38 11 12 13 23
27 23 31 1 5 2 9 4 11 3 4 12 42 13 60 1 9 6 17 11 17 5 0 6 3 3 7 -4 3 -3 11
2 17 4 6 11 21 14 34 5 20 3 22 -11 10 -15 -11 -14 -10 1 8 20 24 22 45 5 63
-10 11 -10 13 0 7 7 -4 12 -1 12 8 0 8 3 23 7 33 6 16 5 16 -10 4 -16 -13 -16
-12 -2 15 10 20 15 58 14 119 -1 80 -3 94 -25 123 -14 17 -32 32 -40 32 -7 0
-14 3 -14 8 0 11 -160 7 -255 -6 -194 -27 -181 -26 -168 -10 19 22 4 29 -32
14 -31 -13 -32 -13 -27 13 3 14 1 23 -3 19 -5 -4 -14 -3 -22 4 -9 7 -89 13
-226 16 -198 4 -213 3 -227 -14z m437 -729 c0 -8 -4 -12 -9 -9 -5 3 -6 10 -3
15 9 13 12 11 12 -6z m231 -20 c-3 -3 -9 2 -12 12 -6 14 -5 15 5 6 7 -7 10
-15 7 -18z"/>
<path d="M2050 2008 c0 -4 4 -8 9 -8 6 0 12 4 15 8 3 5 -1 9 -9 9 -8 0 -15 -4
-15 -9z"/>
<path d="M1291 1569 c-14 -5 -37 -7 -53 -4 -27 6 -34 -1 -29 -28 1 -5 -6 -4
-16 1 -18 11 -43 -6 -43 -29 0 -8 -5 -8 -17 2 -10 8 -14 9 -10 2 4 -6 3 -14
-3 -18 -7 -4 -7 -12 0 -24 14 -27 112 -44 175 -31 28 6 58 12 67 14 21 3 58
35 58 50 0 6 -5 4 -10 -4 -8 -13 -10 -12 -11 5 -1 11 -1 26 0 33 2 10 -2 11
-18 2 -14 -7 -21 -7 -21 0 0 5 -5 10 -11 10 -7 0 -17 6 -23 14 -8 10 -17 12
-35 5z"/>
<path d="M2092 970 c-12 -10 -22 -23 -22 -28 0 -6 -6 -12 -12 -14 -10 -4 -10
-10 0 -32 l13 -28 19 23 c11 13 24 29 30 36 12 14 13 50 2 56 -4 3 -17 -3 -30
-13z"/>
<path d="M2311 748 c1 -18 -2 -66 -6 -105 l-8 -73 107 0 106 0 0 25 c0 25 -1
25 -80 25 l-80 0 0 55 0 55 80 0 c79 0 80 0 80 25 l0 25 -100 0 -101 0 2 -32z"/>
</g>
</svg>
